<svg xmlns="http://www.w3.org/2000/svg" viewBox="0 0 500 500">
  <path fill="currentColor" d="M250 30c-25 0-45.8 8.9-62.5 26.6C170.8 74.3 162 92 162 117c0 13.9 3.3 26.6 10 38.1 6.7 11.5 15.6 20.8 26.9 27.8-8.9 5.6-16.7 12.8-23.4 21.6-6.7 8.9-10 18.9-10 30 0 16.7 5.6 30.6 16.9 41.9 11.3 11.3 25.2 16.9 41.9 16.9h51.6c16.7 0 30.6-5.6 41.9-16.9 11.3-11.3 16.9-25.2 16.9-41.9 0-11.1-3.3-21.1-10-30-6.7-8.9-14.5-16-23.4-21.6 11.3-7 20.2-16.3 26.9-27.8 6.7-11.5 10-24.2 10-38.1 0-25-8.9-42.7-26.6-60.4C295.8 38.9 275 30 250 30zm0 40c11.1 0 20.6 4 28.4 11.9 7.8 7.8 11.9 17.3 11.9 28.4 0 11.1-4 20.6-11.9 28.4-7.8 7.8-17.3 11.9-28.4 11.9s-20.6-4-28.4-11.9c-7.8-7.8-11.9-17.3-11.9-28.4 0-11.1 4-20.6 11.9-28.4 7.8-7.8 17.3-11.9 28.4-11.9zm0 120c11.1 0 20.6 4 28.4 11.9 7.8 7.8 11.9 17.3 11.9 28.4 0 11.1-4 20.6-11.9 28.4-7.8 7.8-17.3 11.9-28.4 11.9s-20.6-4-28.4-11.9c-7.8-7.8-11.9-17.3-11.9-28.4 0-11.1 4-20.6 11.9-28.4 7.8-7.8 17.3-11.9 28.4-11.9z"/>
  <text x="250" y="400" text-anchor="middle" font-family="Arial" font-size="48" fill="currentColor">CUSTOM PAINT & DESIGN</text>
  <text x="250" y="450" text-anchor="middle" font-family="Arial" font-size="24" fill="currentColor">EST 2008</text>
  <text x="250" y="350" text-anchor="middle" font-family="Arial" font-size="72" fill="currentColor">MAGASS</text>
  <text x="250" y="380" text-anchor="middle" font-family="Arial" font-size="36" fill="currentColor">DESIGN</text>
</svg>